# xmcd CD database file generated by Grip 3.0.7
# 
# Track frame offsets:
#       150
#       25407
#       44087
#       87488
#       124257
#       153111
#       165736
#       198253
#       220438
#       245070
#       287102
# 
# Disc length: 4116 seconds
# 
# Revision: 1
# Processed by: cddbd v1.5.1PL0 Copyright (c) Steve Scherf et al.
# Submitted via: Grip 3.0.7
# 
DISCID=a510120b
DTITLE=Various Artist - Funky Jazz vol. 6 (Cool and soul)
DYEAR=2004
DGENRE=Jazz+Funk
TTITLE0=Tower of Power - Attitude dance
TTITLE1=Blood, Sweat and Tears - Spinning wheel
TTITLE2=Chuck Mangione - Feels so good
TTITLE3=Jimmy Smith - Give up the booty
TTITLE4=Weather Report - Black market
TTITLE5=Quincy Jones - Soul bossa nova (original mix)
TTITLE6=Stanley Turrentine - Salt song
TTITLE7=Oliver Nelson - Cool
TTITLE8=Kenny Burrell - Chitlins con carne
TTITLE9=George Benson - So what
TTITLE10=Earth, Wind and Fire - Boogie wonderland
EXTD=YEAR: 2004
EXTT0=
EXTT1=
EXTT2=
EXTT3=
EXTT4=
EXTT5=
EXTT6=
EXTT7=
EXTT8=
EXTT9=
EXTT10=
PLAYORDER=
